<?xml version="1.0" encoding="utf-8"?>
<!-- Generator: Adobe Illustrator 15.1.0, SVG Export Plug-In . SVG Version: 6.00 Build 0)  -->
<!DOCTYPE svg PUBLIC "-//W3C//DTD SVG 1.1//EN" "http://www.w3.org/Graphics/SVG/1.1/DTD/svg11.dtd">
<svg version="1.1" id="Layer_1" xmlns="http://www.w3.org/2000/svg" xmlns:xlink="http://www.w3.org/1999/xlink" x="0px" y="0px"
	 width="400px" height="880px" viewBox="0 0 400 880" enable-background="new 0 0 400 880" xml:space="preserve">
<g>
	<defs>
		<rect id="SVGID_1_" x="422.82" y="0" width="400" height="880"/>
	</defs>
	<clipPath id="SVGID_2_">
		<use xlink:href="#SVGID_1_"  overflow="visible"/>
	</clipPath>
	<g clip-path="url(#SVGID_2_)">
		<g>
			<path d="M832.365,890H418.427V-13.418c-0.091-1.47-0.204-3.338,1.456-3.578L832.365-17V890z M419.427,889h411.938V-16H419.954
				c-0.569,0.087-0.632,0.858-0.528,2.552L419.427,889z M641.162,868.451c-5.32,0-10.922-0.406-16.339-0.799
				c-1.191-0.086-2.382-0.172-3.57-0.254l-0.266-0.02l-0.133-0.23c-2.899-5.025-4.895-11.051-6.823-16.879
				c-2.038-6.154-4.144-12.514-7.307-17.643c-1.744,1.023-1.475,3.104-1.191,5.295c0.24,1.852,0.467,3.602-0.547,4.756
				c-0.646,0.736-1.699,1.094-3.217,1.096l-0.203-0.043c-4.732-2.111-4.668-8.857-4.607-15.383c0.044-4.561,0.088-9.27-1.527-12.137
				c-8.753,5.111-8.384,19.041-8.026,32.52c0.177,6.682,0.345,12.994-0.55,18.252l-0.09,0.521l-0.516-0.117
				c-7.156-1.639-6.527-8.777-5.862-16.338c0.259-2.938,0.526-5.975,0.339-8.77c-0.598-8.918-2.054-19.475-4.102-29.725
				c-0.713-3.574-1.861-7.217-2.972-10.742c-1.966-6.24-3.823-12.133-3.196-17.15c0.691-5.541,4.937-9.119,9.041-12.578
				c2.022-1.703,3.933-3.312,5.451-5.143c16.07-19.361,23.738-50.035,31.153-79.699c4.583-18.332,9.321-37.291,16.02-53.705
				c2.285-5.604,5.681-11.398,8.965-17.004c4.821-8.229,9.374-15.998,10.522-22.951c2.612-15.82-17.391-35.143-31.996-49.25
				c-3.322-3.209-6.459-6.238-8.963-8.875c-8.924-9.402-17.158-20.992-25.121-32.199c-5.18-7.291-10.071-14.176-14.965-20.217
				c-5.465-6.746-12.268-12.09-18.848-17.258c-14.422-11.328-29.336-23.043-29.543-49.822c-0.161-20.835,6.575-31.671,18.283-43.156
				c-5.611-5.744-11.324-11.507-16.854-17.084c-18.969-19.133-38.583-38.918-57.808-61.679c-0.591-0.699-1.339-1.562-2.196-2.551
				c-6.512-7.508-18.632-21.482-18.467-28.6c0.23-9.932,19.735-26.114,29.108-33.89c1.138-0.944,2.126-1.763,2.91-2.432
				c8.384-7.138,16.701-12.777,24.744-18.23c13.438-9.11,26.134-17.717,36.638-31.786c-0.435-0.882-1.115-1.247-2.281-1.247
				c-0.587,0-1.227,0.089-1.902,0.183c-0.719,0.1-1.461,0.204-2.19,0.204c-1.081,0-2.646-0.195-3.741-1.886l-0.075-0.196
				c-0.351-2.285-0.532-4.77-0.708-7.173c-0.527-7.189-1.072-14.624-6.207-17.105l-0.281-0.136l-0.002-0.312
				c-0.021-4.615,2.445-6.749,4.831-8.813c1.221-1.056,2.38-2.059,3.222-3.378c-4.739-3.473-7.625-8.291-8.581-14.329
				c-1.771-11.179,3.563-23.161,8.722-30.111c-0.312-1.822-1.537-2.752-2.834-3.735c-1.526-1.159-3.258-2.473-3.304-5.37
				c0.165-1.136,0.442-2.212,1.284-2.212c0.631,0,1.141,0.651,1.846,1.553c0.9,1.15,2.049,2.591,3.248,2.271
				c3.318-3.875,3.097-11.585,2.883-19.045c-0.09-3.133-0.184-6.372-0.015-9.31l0.009-0.145l0.084-0.118
				c3.966-5.542,8.426-11.223,15.462-14.479c1.704-2.956,3.14-6.039,4.528-9.021c3.691-7.925,7.178-15.411,15.101-19.79
				c6.188-3.42,13.171-3.568,20.565-3.725c6.182-0.131,12.574-0.267,18.537-2.47l0.109-0.041l0.115,0.012
				c8.75,0.909,29.51,4.265,33.294,15.749c4.226,12.816,11.639,24.274,18.807,35.354c2.287,3.535,4.651,7.19,6.826,10.768
				l0.066,0.183c0.444,2.852-0.002,4.832-0.434,6.746c-0.315,1.403-0.615,2.731-0.592,4.402c17.45,15.322,37.8,24.499,61.352,35.121
				c8.258,3.724,16.796,7.575,25.685,11.911c13.448,6.561,48.397,27.48,48.622,45.252c0.076,6.049-3.836,11.169-11.63,15.219
				c-11.539,5.997-42.157,10.147-58.746,11.354c-3.409,0.248-7.04,0.374-10.793,0.374c-11.192,0-22.061-1.07-32.57-2.104
				c-5.1-0.502-9.93-0.977-14.559-1.304c4.163,15.027,15.295,23.474,26.065,31.647c1.471,1.116,2.94,2.231,4.396,3.364l0.145,0.112
				l0.037,0.18c3.51,16.75-0.928,33.79-11.307,43.481c-1.501,17.84-7.954,33.487-14.195,48.621
				c-3.385,8.208-6.886,16.695-9.434,25.246c-7.15,23.991-17.824,46.068-31.729,65.625c9.275,15.887,18.854,30.504,28.118,44.643
				c15.985,24.395,31.085,47.438,44.671,76.326c2.75,5.848,6.968,13.9,11.281,21.539c1.258,2.229,2.62,4.359,3.938,6.42
				c5.691,8.906,11.067,17.316,6.372,30.969c-1.964,5.711-6.379,12.271-11.054,19.217c-3.594,5.34-7.311,10.863-10.55,16.812
				c-3.13,5.744-6.374,11.99-9.512,18.031c-3.283,6.322-6.678,12.857-10.006,18.947c-5.39,9.869-11.526,19.447-17.46,28.709
				c-9.71,15.154-18.881,29.469-23.595,43.119c-6.039,17.488-0.645,35.32,4.115,51.053l0.136,0.445
				c4.298,14.213,7.692,25.439,26.309,25.439c2.404,0,5.075-0.188,7.938-0.557l0.333-0.043l0.166,0.291
				c6.933,12.137,0.257,19.121-5.633,25.285c-1.325,1.387-2.576,2.697-3.656,4.037c-2.173,2.697-3.542,5.549-4.867,8.309
				c-1.73,3.605-3.365,7.01-6.533,9.25C660.63,866.516,652.73,868.451,641.162,868.451z M621.589,866.418
				c1.101,0.078,2.203,0.158,3.307,0.238c5.399,0.391,10.982,0.795,16.267,0.795c11.349,0,19.069-1.879,25.034-6.096
				c2.957-2.09,4.464-5.23,6.21-8.867c1.35-2.811,2.745-5.715,4.989-8.502c1.106-1.373,2.373-2.697,3.713-4.102
				c5.874-6.146,11.945-12.502,5.65-23.807c-2.779,0.346-5.378,0.521-7.731,0.521c-19.358,0-22.849-11.539-27.267-26.148
				l-0.135-0.447c-4.804-15.877-10.248-33.873-4.104-51.668c4.753-13.764,13.955-28.127,23.697-43.332
				c5.925-9.248,12.052-18.811,17.426-28.648c3.322-6.082,6.715-12.613,9.995-18.93c3.14-6.045,6.387-12.297,9.521-18.049
				c3.263-5.99,6.992-11.533,10.6-16.893c4.637-6.889,9.017-13.396,10.938-18.982c4.538-13.195-0.471-21.031-6.27-30.105
				c-1.324-2.072-2.694-4.215-3.966-6.467c-4.325-7.66-8.555-15.736-11.314-21.605c-13.557-28.824-28.637-51.838-44.604-76.205
				c-9.325-14.23-18.969-28.948-28.308-44.965l-0.163-0.279l0.188-0.263c13.932-19.531,24.621-41.6,31.771-65.593
				c2.563-8.599,6.073-17.11,9.468-25.341c6.235-15.118,12.682-30.75,14.14-48.516l0.016-0.194l0.144-0.132
				c10.191-9.399,14.573-26.062,11.187-42.494c-1.403-1.091-2.822-2.167-4.24-3.244c-11.065-8.397-22.508-17.082-26.609-32.865
				l-0.174-0.672l0.692,0.047c4.855,0.329,9.922,0.827,15.286,1.355c10.486,1.032,21.329,2.099,32.473,2.099
				c3.729,0,7.336-0.125,10.721-0.371c17.73-1.291,47.558-5.632,58.357-11.245c7.431-3.861,11.162-8.678,11.091-14.318
				c-0.218-17.267-34.767-37.88-48.06-44.366c-8.876-4.33-17.407-8.177-25.658-11.898c-23.699-10.688-44.166-19.918-61.767-35.427
				l-0.162-0.143l-0.007-0.217c-0.058-1.9,0.283-3.409,0.612-4.868c0.424-1.884,0.825-3.665,0.435-6.275
				c-2.152-3.538-4.493-7.157-6.759-10.659c-7.202-11.133-14.65-22.645-18.916-35.584C635.716,11.81,615.59,8.542,606.969,7.635
				c-6.088,2.223-12.525,2.359-18.752,2.491c-7.268,0.154-14.131,0.299-20.104,3.601c-7.638,4.221-11.057,11.563-14.678,19.337
				c-1.419,3.048-2.887,6.201-4.648,9.238l-0.08,0.138l-0.145,0.066c-6.847,3.12-11.232,8.667-15.126,14.1
				c-0.155,2.857-0.064,6.02,0.023,9.08c0.222,7.721,0.452,15.704-3.224,19.841l-0.085,0.096l-0.121,0.043
				c-0.269,0.095-0.543,0.144-0.816,0.144c-1.556,0-2.729-1.5-3.672-2.704c-0.315-0.403-0.778-0.994-1.015-1.141
				c-0.068,0.11-0.207,0.42-0.333,1.251c0.044,2.327,1.438,3.386,2.915,4.506c1.445,1.098,2.941,2.232,3.249,4.6l0.026,0.202
				l-0.122,0.163c-5.079,6.768-10.395,18.562-8.659,29.522c0.938,5.919,3.812,10.609,8.547,13.938l0.37,0.261l-0.222,0.394
				c-0.939,1.664-2.327,2.865-3.669,4.026c-2.259,1.955-4.396,3.805-4.482,7.749c5.389,2.853,5.945,10.444,6.483,17.789
				c0.172,2.345,0.35,4.77,0.684,6.986c0.637,0.928,1.52,1.343,2.845,1.343c0.659,0,1.368-0.099,2.052-0.194
				c0.682-0.095,1.385-0.193,2.041-0.193c1.059,0,2.555,0.22,3.321,2.124l0.104,0.26l-0.167,0.225
				c-10.64,14.344-23.47,23.042-37.054,32.251c-8.021,5.438-16.314,11.061-24.657,18.164c-0.788,0.67-1.778,1.493-2.92,2.44
				c-9.259,7.682-28.527,23.667-28.747,33.144c-0.156,6.731,12.256,21.043,18.222,27.921c0.861,0.993,1.612,1.859,2.205,2.561
				c19.199,22.73,38.8,42.5,57.753,61.62c5.646,5.694,11.483,11.583,17.209,17.448l0.35,0.358l-0.358,0.349
				c-11.735,11.428-18.499,22.092-18.339,42.782c0.203,26.296,14.27,37.345,29.161,49.042c6.622,5.203,13.472,10.582,19.007,17.416
				c4.913,6.066,9.814,12.963,15.002,20.266c7.943,11.18,16.157,22.74,25.033,32.09c2.487,2.621,5.617,5.645,8.932,8.846
				c14.765,14.262,34.985,33.793,32.287,50.131c-1.178,7.137-5.777,14.984-10.646,23.295c-3.267,5.574-6.645,11.338-8.902,16.875
				c-6.671,16.35-11.401,35.271-15.976,53.57c-7.442,29.773-15.139,60.559-31.354,80.096c-1.576,1.898-3.609,3.611-5.576,5.27
				c-3.957,3.334-8.05,6.783-8.693,11.936c-0.6,4.801,1.225,10.594,3.158,16.727c1.118,3.551,2.274,7.221,2.998,10.848
				c2.057,10.291,3.519,20.893,4.119,29.854c0.191,2.873-0.079,5.949-0.341,8.924c-0.635,7.213-1.186,13.469,4.572,15.141
				c0.78-5.057,0.619-11.117,0.45-17.52c-0.371-13.99-0.755-28.455,8.965-33.658l0.402-0.217l0.25,0.381
				c2.031,3.07,1.982,8.166,1.936,13.094c-0.058,6.154-0.117,12.516,3.918,14.414c1.154-0.014,1.926-0.262,2.357-0.754
				c0.716-0.814,0.518-2.346,0.308-3.967c-0.306-2.361-0.687-5.297,2.165-6.535l0.393-0.17l0.229,0.361
				c3.365,5.299,5.544,11.881,7.652,18.248C616.863,855.645,618.81,861.526,621.589,866.418z"/>
			<path d="M641.163,868.449c-5.315,0-10.91-0.406-16.32-0.797c-1.198-0.088-2.396-0.174-3.591-0.256l-0.266-0.02l-0.133-0.23
				c-2.899-5.025-4.895-11.051-6.824-16.879c-2.037-6.154-4.143-12.512-7.307-17.643c-1.742,1.023-1.473,3.102-1.189,5.295
				c0.24,1.852,0.467,3.602-0.548,4.756c-0.646,0.736-1.698,1.094-3.216,1.096l-0.204-0.043c-4.731-2.113-4.669-8.859-4.606-15.383
				c0.043-4.561,0.087-9.27-1.529-12.137c-8.752,5.111-8.383,19.043-8.025,32.521c0.177,6.682,0.344,12.992-0.551,18.25
				l-0.088,0.521l-0.516-0.117c-7.156-1.639-6.528-8.777-5.863-16.336c0.259-2.938,0.525-5.975,0.338-8.771
				c-0.598-8.924-2.055-19.48-4.1-29.725c-0.715-3.574-1.862-7.217-2.973-10.742c-1.967-6.24-3.824-12.135-3.197-17.152
				c0.693-5.539,4.938-9.117,9.043-12.576c2.021-1.705,3.932-3.314,5.449-5.143c16.072-19.363,23.74-50.037,31.155-79.703
				c4.583-18.332,9.321-37.287,16.018-53.701c2.285-5.604,5.681-11.398,8.965-17.002c4.821-8.229,9.375-16,10.523-22.953
				c2.612-15.82-17.391-35.143-31.996-49.25c-3.321-3.209-6.46-6.238-8.962-8.875c-8.924-9.402-17.159-20.992-25.123-32.201
				c-5.179-7.289-10.07-14.174-14.965-20.217c-5.464-6.744-12.268-12.088-18.847-17.256c-14.423-11.33-29.336-23.043-29.544-49.822
				c-0.16-20.833,6.576-31.67,18.284-43.156c-5.612-5.745-11.326-11.509-16.856-17.086c-18.967-19.132-38.58-38.916-57.805-61.677
				c-0.592-0.7-1.34-1.563-2.198-2.553c-6.511-7.507-18.63-21.481-18.465-28.598c0.231-9.933,19.737-26.116,29.112-33.893
				c1.136-0.942,2.122-1.761,2.906-2.429c8.384-7.138,16.7-12.777,24.743-18.23c13.438-9.11,26.134-17.718,36.64-31.787
				c-0.436-0.881-1.115-1.247-2.281-1.247c-0.587,0-1.227,0.089-1.902,0.183c-0.719,0.1-1.462,0.204-2.19,0.204
				c-1.081,0-2.646-0.195-3.743-1.886l-0.074-0.196c-0.35-2.284-0.531-4.768-0.708-7.17c-0.526-7.19-1.071-14.625-6.208-17.108
				l-0.28-0.136l-0.001-0.312c-0.021-4.614,2.445-6.749,4.83-8.813c1.221-1.057,2.379-2.06,3.221-3.378
				c-4.738-3.473-7.625-8.291-8.58-14.329c-1.771-11.179,3.562-23.161,8.721-30.112c-0.311-1.821-1.537-2.752-2.832-3.735
				c-1.527-1.159-3.259-2.473-3.305-5.37c0.166-1.136,0.443-2.212,1.284-2.212c0.63,0,1.14,0.651,1.845,1.553
				c0.902,1.151,2.057,2.592,3.249,2.271c3.318-3.875,3.097-11.586,2.882-19.046c-0.09-3.133-0.183-6.373-0.014-9.31l0.008-0.145
				l0.084-0.118c3.968-5.543,8.428-11.224,15.463-14.479c1.705-2.957,3.141-6.04,4.529-9.023c3.691-7.924,7.176-15.409,15.1-19.787
				c6.188-3.42,13.172-3.568,20.564-3.725c6.183-0.131,12.575-0.267,18.537-2.47l0.109-0.041l0.116,0.012
				c8.75,0.909,29.51,4.264,33.294,15.749c4.228,12.819,11.642,24.279,18.812,35.362c2.285,3.532,4.648,7.185,6.821,10.76
				l0.066,0.183c0.445,2.854-0.001,4.834-0.433,6.75c-0.316,1.402-0.615,2.729-0.593,4.398c17.45,15.322,37.8,24.499,61.352,35.121
				c8.258,3.724,16.796,7.575,25.685,11.911c13.448,6.56,48.397,27.478,48.622,45.251c0.077,6.049-3.836,11.17-11.63,15.22
				c-11.543,5.998-42.159,10.147-58.746,11.354c-3.41,0.249-7.043,0.374-10.799,0.374c-11.194,0-22.063-1.069-32.574-2.104
				c-5.096-0.501-9.922-0.977-14.549-1.303c4.164,15.027,15.296,23.474,26.066,31.648c1.471,1.115,2.94,2.231,4.395,3.363
				l0.145,0.112l0.037,0.18c3.51,16.75-0.928,33.79-11.307,43.48c-1.501,17.84-7.954,33.488-14.195,48.622
				c-3.385,8.208-6.886,16.695-9.434,25.245c-7.151,23.993-17.825,46.07-31.729,65.625c9.274,15.886,18.853,30.502,28.117,44.639
				c15.986,24.396,31.087,47.441,44.673,76.33c2.748,5.846,6.965,13.896,11.28,21.539c1.259,2.229,2.62,4.359,3.938,6.42
				c5.691,8.906,11.067,17.316,6.372,30.969c-1.964,5.711-6.38,12.273-11.055,19.221c-3.594,5.338-7.31,10.859-10.549,16.809
				c-3.128,5.742-6.372,11.986-9.508,18.023c-3.284,6.324-6.681,12.863-10.01,18.955c-5.391,9.869-11.526,19.447-17.461,28.709
				c-9.709,15.154-18.88,29.469-23.594,43.119c-6.04,17.49-0.645,35.32,4.115,51.053l0.133,0.438
				c4.299,14.219,7.695,25.447,26.312,25.447c2.404,0,5.075-0.188,7.938-0.557l0.333-0.043l0.166,0.291
				c6.933,12.137,0.257,19.123-5.633,25.285c-1.325,1.387-2.576,2.697-3.656,4.037c-2.173,2.697-3.542,5.549-4.867,8.309
				c-1.73,3.605-3.365,7.01-6.533,9.25C660.63,866.512,652.731,868.448,641.163,868.449z M621.588,866.416
				c1.107,0.078,2.217,0.158,3.327,0.238c5.393,0.391,10.969,0.795,16.248,0.795c11.349-0.002,19.069-1.881,25.032-6.096
				c2.957-2.09,4.464-5.23,6.21-8.867c1.35-2.811,2.744-5.715,4.989-8.502c1.106-1.373,2.373-2.697,3.713-4.102
				c5.874-6.146,11.945-12.502,5.65-23.807c-2.779,0.346-5.378,0.521-7.731,0.521c-19.358,0-22.85-11.543-27.269-26.158
				l-0.133-0.438c-4.804-15.877-10.249-33.871-4.104-51.668c4.753-13.762,13.955-28.125,23.697-43.332
				c5.925-9.248,12.052-18.811,17.426-28.648c3.323-6.084,6.717-12.617,9.999-18.938c3.139-6.041,6.384-12.291,9.517-18.041
				c3.263-5.99,6.992-11.531,10.598-16.889c4.638-6.891,9.019-13.4,10.939-18.986c4.538-13.197-0.471-21.031-6.27-30.105
				c-1.324-2.072-2.693-4.215-3.966-6.467c-4.327-7.662-8.557-15.74-11.313-21.605c-13.557-28.826-28.638-51.84-44.605-76.207
				c-9.325-14.23-18.969-28.947-28.307-44.963l-0.163-0.279l0.188-0.263c13.931-19.53,24.621-41.599,31.771-65.594
				c2.563-8.599,6.073-17.109,9.468-25.34c6.235-15.118,12.682-30.751,14.14-48.517l0.016-0.194l0.144-0.132
				c10.191-9.399,14.573-26.061,11.187-42.494c-1.403-1.09-2.821-2.167-4.239-3.243c-11.066-8.398-22.509-17.083-26.61-32.866
				l-0.174-0.671l0.692,0.046c4.854,0.329,9.916,0.827,15.276,1.354c10.487,1.032,21.331,2.099,32.477,2.099
				c3.731,0,7.34-0.125,10.727-0.371c17.729-1.29,47.555-5.631,58.357-11.245c7.431-3.861,11.162-8.679,11.091-14.319
				c-0.219-17.268-34.767-37.88-48.06-44.365c-8.876-4.33-17.407-8.177-25.658-11.898c-23.699-10.688-44.166-19.918-61.767-35.427
				l-0.162-0.143l-0.007-0.217c-0.057-1.898,0.283-3.406,0.612-4.864c0.425-1.885,0.826-3.667,0.435-6.279
				c-2.15-3.536-4.49-7.152-6.754-10.651c-7.204-11.136-14.653-22.651-18.921-35.592c-3.586-10.882-23.711-14.149-32.333-15.056
				c-6.087,2.223-12.525,2.36-18.753,2.492c-7.267,0.154-14.131,0.3-20.103,3.6c-7.638,4.221-11.057,11.562-14.676,19.334
				c-1.42,3.049-2.888,6.202-4.65,9.24l-0.08,0.138l-0.146,0.066c-6.845,3.119-11.23,8.666-15.125,14.1
				c-0.155,2.857-0.064,6.02,0.023,9.08c0.223,7.721,0.451,15.705-3.224,19.841l-0.085,0.096l-0.121,0.043
				c-0.268,0.095-0.543,0.144-0.816,0.144c-1.556,0-2.729-1.5-3.672-2.704c-0.315-0.403-0.777-0.994-1.015-1.141
				c-0.069,0.11-0.206,0.42-0.333,1.251c0.044,2.327,1.438,3.385,2.914,4.506c1.447,1.097,2.942,2.232,3.25,4.599l0.026,0.202
				l-0.122,0.163c-5.079,6.769-10.395,18.562-8.659,29.523c0.937,5.919,3.813,10.609,8.547,13.938l0.37,0.261l-0.223,0.394
				c-0.938,1.664-2.326,2.865-3.668,4.027c-2.259,1.955-4.396,3.805-4.482,7.749c5.391,2.853,5.946,10.444,6.484,17.791
				c0.172,2.344,0.35,4.767,0.683,6.982c0.638,0.928,1.521,1.343,2.846,1.343c0.659,0,1.368-0.099,2.052-0.194
				c0.682-0.095,1.385-0.193,2.041-0.193c1.059,0,2.554,0.22,3.32,2.124l0.104,0.26l-0.167,0.225
				c-10.641,14.344-23.471,23.043-37.055,32.253c-8.021,5.438-16.314,11.061-24.656,18.164c-0.787,0.67-1.777,1.491-2.917,2.437
				c-9.261,7.683-28.53,23.669-28.75,33.147c-0.156,6.73,12.255,21.042,18.22,27.919c0.862,0.994,1.613,1.86,2.207,2.562
				c19.199,22.73,38.798,42.5,57.752,61.618c5.646,5.695,11.484,11.583,17.211,17.449l0.35,0.358l-0.359,0.35
				c-11.736,11.429-18.499,22.093-18.34,42.782c0.205,26.296,14.27,37.345,29.162,49.042c6.623,5.201,13.471,10.582,19.006,17.414
				c4.914,6.066,9.814,12.963,15.003,20.266c7.944,11.182,16.157,22.742,25.032,32.092c2.488,2.621,5.618,5.645,8.932,8.846
				c14.766,14.262,34.986,33.793,32.288,50.131c-1.178,7.137-5.777,14.986-10.646,23.297c-3.267,5.574-6.644,11.338-8.902,16.873
				c-6.67,16.348-11.399,35.27-15.974,53.566c-7.441,29.773-15.139,60.562-31.355,80.1c-1.574,1.896-3.607,3.611-5.574,5.268
				c-3.958,3.336-8.051,6.785-8.695,11.938c-0.6,4.801,1.227,10.594,3.158,16.727c1.119,3.551,2.275,7.221,3,10.848
				c2.054,10.285,3.516,20.887,4.117,29.854c0.193,2.873-0.078,5.951-0.34,8.926c-0.635,7.211-1.186,13.467,4.572,15.139
				c0.779-5.057,0.619-11.115,0.449-17.518c-0.371-13.99-0.755-28.457,8.966-33.66l0.401-0.217l0.252,0.381
				c2.029,3.07,1.981,8.166,1.936,13.094c-0.059,6.152-0.119,12.514,3.918,14.414c1.152-0.014,1.925-0.262,2.357-0.754
				c0.716-0.814,0.518-2.346,0.307-3.969c-0.305-2.359-0.686-5.297,2.166-6.533l0.392-0.17l0.229,0.361
				c3.363,5.299,5.543,11.883,7.65,18.248C616.863,855.645,618.81,861.524,621.588,866.416z M553.779,342.725L553.779,342.725
				c-1.244,0-2.402-0.079-3.445-0.235c-11.405-1.706-25.707-21.466-33.216-33.092c-6.241-9.665-10.6-18.761-14.815-27.557
				c-2.439-5.089-4.961-10.352-7.803-15.621l-0.207-0.383l5.338-3.912c20.944-15.357,40.727-29.862,62.855-42.6
				c1.262-0.726,2.482-1.094,3.626-1.094c7.104,0,10.176,13.741,13.147,27.03c0.82,3.671,1.596,7.139,2.449,10.321l0.635,2.357
				c6.623,24.572,17.709,65.699-3.947,78.326C573.867,338.906,562.496,342.725,553.779,342.725z M495.586,266.129
				c2.77,5.161,5.234,10.303,7.619,15.28c4.201,8.768,8.547,17.835,14.753,27.447c5.972,9.246,21.097,30.937,32.524,32.646
				c0.994,0.149,2.103,0.224,3.297,0.224c8.542,0,19.68-3.739,24.113-6.324c20.996-12.242,10.034-52.906,3.485-77.202l-0.635-2.358
				c-0.859-3.203-1.637-6.68-2.46-10.362c-2.75-12.304-5.868-26.249-12.171-26.249c-0.967,0-2.019,0.323-3.127,0.961
				c-22.081,12.71-41.842,27.2-62.763,42.54L495.586,266.129z M723.408,158.757c-0.001,0-0.002,0-0.003,0
				c-7.246,0-13.397-1.816-19.909-3.739c-6.597-1.948-13.418-3.961-21.57-3.961c-2.021,0-4.086,0.126-6.136,0.375l-0.517,0.062
				l-0.042-0.519c-0.394-4.821-3.237-7.118-6.248-9.551c-0.96-0.775-1.952-1.577-2.85-2.46l-0.189-0.187l0.048-0.261
				c0.678-3.663,2.276-6.435,3.821-9.116c1.291-2.24,2.626-4.555,3.378-7.358l0.125-0.462l0.467,0.104
				c19.8,4.407,33.644,15.119,47.031,25.478c4.113,3.183,8.367,6.474,12.726,9.527l0.916,0.643l-1.09,0.254
				C729.986,158.374,726.728,158.757,723.408,158.757z M681.926,150.056c8.297,0,15.188,2.035,21.854,4.002
				c6.44,1.902,12.525,3.698,19.626,3.698c0.001,0,0.002,0,0.003,0c2.883,0,5.717-0.296,8.632-0.902
				c-4.054-2.879-8.006-5.938-11.837-8.902c-13.197-10.21-26.839-20.766-46.176-25.188c-0.802,2.719-2.095,4.962-3.348,7.135
				c-1.532,2.66-2.982,5.175-3.653,8.537c0.813,0.779,1.713,1.506,2.585,2.21c2.941,2.376,5.979,4.831,6.565,9.733
				C678.099,150.165,680.031,150.056,681.926,150.056z M530.351,134.074l0.041-0.635c0.141-2.177-0.457-3.946-1.034-5.657
				c-0.843-2.497-1.64-4.855,0.069-7.908l0.26-0.465l0.447,0.29c1.911,1.236,5.127,7.088,4.343,10.957
				c-0.37,1.827-1.581,2.972-3.499,3.309L530.351,134.074z M530.027,120.894c-1.125,2.413-0.471,4.35,0.278,6.569
				c0.524,1.554,1.112,3.295,1.107,5.37c1.151-0.366,1.835-1.148,2.085-2.375C534.125,127.364,531.695,122.5,530.027,120.894z"/>
			<path d="M530.351,134.074l0.041-0.635c0.141-2.177-0.457-3.946-1.034-5.657c-0.843-2.497-1.64-4.855,0.069-7.908l0.26-0.465
				l0.447,0.29c1.911,1.236,5.127,7.088,4.343,10.957c-0.37,1.827-1.581,2.972-3.499,3.309L530.351,134.074z M530.027,120.894
				c-1.125,2.413-0.471,4.35,0.278,6.569c0.524,1.554,1.112,3.295,1.107,5.37c1.151-0.366,1.835-1.148,2.085-2.375
				C534.125,127.365,531.695,122.5,530.027,120.894z"/>
			<path d="M723.405,158.757c-7.246,0-13.397-1.816-19.91-3.74c-6.597-1.947-13.417-3.961-21.568-3.961
				c-2.021,0-4.086,0.126-6.136,0.375l-0.517,0.062l-0.042-0.519c-0.394-4.82-3.236-7.117-6.247-9.549
				c-0.96-0.775-1.952-1.578-2.851-2.462l-0.189-0.187l0.049-0.261c0.677-3.663,2.275-6.435,3.82-9.116
				c1.291-2.24,2.626-4.555,3.379-7.358l0.124-0.462l0.467,0.104c19.797,4.408,33.64,15.118,47.027,25.475
				c4.114,3.184,8.369,6.476,12.729,9.53l0.916,0.643l-1.09,0.254C729.987,158.373,726.728,158.757,723.405,158.757z
				 M681.927,150.055c8.296,0,15.188,2.035,21.852,4.002c6.441,1.902,12.525,3.699,19.627,3.699c2.885,0,5.72-0.296,8.636-0.903
				c-4.055-2.88-8.009-5.939-11.842-8.904c-13.195-10.209-26.837-20.763-46.171-25.186c-0.802,2.719-2.095,4.962-3.348,7.135
				c-1.532,2.66-2.982,5.175-3.653,8.537c0.814,0.78,1.714,1.507,2.587,2.211c2.94,2.376,5.978,4.83,6.562,9.731
				C678.099,150.164,680.031,150.055,681.927,150.055z"/>
			<path d="M553.779,342.725c-1.244,0-2.402-0.079-3.445-0.235c-11.407-1.706-25.707-21.466-33.216-33.092
				c-6.241-9.665-10.6-18.761-14.815-27.557c-2.439-5.089-4.961-10.352-7.803-15.621l-0.207-0.383l5.327-3.904
				c20.946-15.359,40.731-29.867,62.866-42.608c1.262-0.726,2.482-1.094,3.627-1.094c7.103,0,10.174,13.739,13.145,27.026
				c0.821,3.672,1.597,7.142,2.451,10.326l0.633,2.348c6.625,24.575,17.713,65.707-3.945,78.336
				C573.868,338.906,562.496,342.725,553.779,342.725z M495.586,266.129c2.77,5.161,5.234,10.303,7.619,15.28
				c4.201,8.769,8.547,17.835,14.753,27.447c5.972,9.246,21.095,30.937,32.524,32.646c0.994,0.149,2.103,0.224,3.297,0.224
				c8.543,0,19.681-3.739,24.113-6.324c20.998-12.243,10.033-52.912,3.482-77.211l-0.632-2.349
				c-0.86-3.204-1.638-6.683-2.461-10.366c-2.751-12.302-5.868-26.244-12.169-26.244c-0.967,0-2.02,0.323-3.128,0.961
				c-22.087,12.713-41.851,27.205-62.774,42.548L495.586,266.129z"/>
		</g>
	</g>
</g>
<path fill="none" stroke="#000000" d="M192.5,208.5c-24.4-10.87-54.39,19.749-63.958,39.693
	c-22.365,46.612,1.955,113.084,51.129,130.392c43.858,15.437,68.839-20.903,69.244-60.792c0.537-53.029-40.829-71.688-80.414-95.292
	"/>
</svg>
