<?xml version="1.0" encoding="utf-8"?>
<!-- Generator: Adobe Illustrator 15.1.0, SVG Export Plug-In . SVG Version: 6.00 Build 0)  -->
<!DOCTYPE svg PUBLIC "-//W3C//DTD SVG 1.1//EN" "http://www.w3.org/Graphics/SVG/1.1/DTD/svg11.dtd">
<svg version="1.1"
	 id="svg2" sodipodi:docname="Novo documento 1" inkscape:version="0.47 r22583" xmlns:sodipodi="http://sodipodi.sourceforge.net/DTD/sodipodi-0.dtd" xmlns:inkscape="http://www.inkscape.org/namespaces/inkscape" xmlns:rdf="http://www.w3.org/1999/02/22-rdf-syntax-ns#" xmlns:svg="http://www.w3.org/2000/svg" xmlns:cc="http://creativecommons.org/ns#" xmlns:dc="http://purl.org/dc/elements/1.1/"
	 xmlns="http://www.w3.org/2000/svg" xmlns:xlink="http://www.w3.org/1999/xlink" x="0px" y="0px" width="431.143px"
	 height="779.295px" viewBox="0 0 431.143 779.295" enable-background="new 0 0 431.143 779.295" xml:space="preserve">
<defs>
	
	
		<inkscape:perspective  sodipodi:type="inkscape:persp3d" inkscape:vp_x="0 : 526.18109 : 1" inkscape:vp_y="0 : 1000 : 0" inkscape:vp_z="744.09448 : 526.18109 : 1" inkscape:persp3d-origin="372.04724 : 350.78739 : 1" id="perspective10">
		</inkscape:perspective>
	
		<inkscape:perspective  sodipodi:type="inkscape:persp3d" inkscape:vp_x="0 : 0.5 : 1" inkscape:vp_y="0 : 1000 : 0" inkscape:vp_z="1 : 0.5 : 1" inkscape:persp3d-origin="0.5 : 0.33333333 : 1" id="perspective2824">
		</inkscape:perspective>
	
		<inkscape:perspective  sodipodi:type="inkscape:persp3d" inkscape:vp_x="0 : 0.5 : 1" inkscape:vp_y="0 : 1000 : 0" inkscape:vp_z="1 : 0.5 : 1" inkscape:persp3d-origin="0.5 : 0.33333333 : 1" id="perspective2840">
		</inkscape:perspective>
</defs>
<sodipodi:namedview  id="base" pagecolor="#ffffff" bordercolor="#666666" inkscape:cx="751.17609" borderopacity="1.0" inkscape:pageopacity="0.0" inkscape:pageshadow="2" inkscape:zoom="0.35" inkscape:cy="172.40946" inkscape:document-units="px" inkscape:current-layer="layer1" showgrid="false" inkscape:window-width="1600" inkscape:window-height="838" inkscape:window-x="-8" inkscape:window-y="-8" inkscape:window-maximized="1">
	</sodipodi:namedview>
<g id="layer1" transform="translate(-123.96963,-61.097906)" inkscape:label="Camada 1" inkscape:groupmode="layer">
	
		<path id="path2830" sodipodi:nodetypes="ccccccscccccccccccccccccccccccccccccccccccccccccccccccccc" fill="none" stroke="#000000" d="
		M481.993,396.694c-19.137-21.411-38.879-42.724-50.931-69.163c-14.952-21.423-30.689-42.979-41.226-66.896
		c-2.779-12.575-5.051-18.145-7.115-2.097c-3.712,22.174-10.446,45.318-4.69,67.587c9.812,16.208,18.925,32.92,21.056,52.099
		c6.956,29.395,10.491,59.853,3.982,89.825c-6.763,31.139-12.976,62.626-19.93,93.586c-2.703,27.68,3.303,55.275,0.423,82.865
		c-2.083,11.388-6.123,22.356-1.783,33.662c3.483,14.144,1.685,29.978,6.635,43.326c8.69,7.229,19.345,16.935,13.661,29.454
		c-6.052,21.895,12.887,41.591,10.081,63.73c3.666,16.762-20.026,23.69-28.938,10.358c-7.696-9.46-12.171-22.502-14.125-34.094
		c0.154-17.112,6.333-34.756-3.236-50.482c-2.22-13.637-5.335-19.458-9.545-2.673c-9.684,19.151-3.576,41.08-9,61.187
		c0.024,14.067,2.534,32.957-13.75,39.094c-8.296-1.263-14.854,1.466-22.819,1.655c-7.351,1.062-17.676-2.62-11.196-13.766
		c4.553-14.922,13.589-28.412,16.124-44.155c3.538-13.362,6.949-26.378,12.999-38.817c4.559-30.789,4.195-62.407,4.513-93.443
		c-4.648-16.169-12.999-31.122-16.852-47.636c-4.351-18.565,1.2-39.102-9.173-56.55c-15.693-40.801-38.678-79.739-44.805-123.512
		c-0.515-18.433,5.636-35.853,8.819-53.67c1.175-20.698,13.141-40.928,6.671-61.7c-5.915,15.584-8.695,33.01-21.924,44.362
		c-20.357,23.406-38.338,49.755-63.951,67.794c-9.378,4.276-22.369-0.395-26.969,11.406c-16.699,10.917-3.075-13.518,2.862-16.476
		c-11.329-4.187-20.424,7.452-32.157,4.828c-14.51,3.097-15.384-6.809-0.174-6.384c13.91-2.369,25.927-12.294,40.886-9.756
		c16.181,3.518,22.066-15.677,31.002-25.3c14.512-19.864,22.355-43.443,35.786-63.88c12.264-30.05,16.674-63.056,18.325-95.337
		c-0.709-11.389,1.218-28.461,16.876-26.79c13.128-0.888,27.318-1.58,32.19-17.394c3.673-10.844-3.907-20.401-6.503-30.294
		c1.603-8.404-14.686-9.181-10.143-22.858c-10.702-21.66,5.589-46.268,23.736-56.61c15.353-2.196,35.686-6.192,45.875,8.75
		c7.867,21.396,15.058,46.827,0.906,67.344c-9.255,0.942-10.876,15.257-13.219,23.031c-3.155,20.936,22.911,23.154,38.731,22.638
		c16.535,1.652,17.142,21.811,22.802,33.89c9.458,31.416,22.616,62.81,45.623,86.848c8.881,26.662,18.099,53.729,35.125,76.438
		c14.094-0.371,28.811-0.577,40.688,8.406c10.36-1.321,33.45,8.847,10.719,7.844c-11.355,2.514-19.994-6.095-30.725-5.531
		c-11.309-0.748,20.5,22.394,2.692,19.469c-6.514-7.914-13.481-12.612-24.224-12.094
		C488.889,399.948,485.257,398.88,481.993,396.694L481.993,396.694z"/>
</g>
</svg>
